<svg height="511pt" viewBox="1 -45 511.9984 511" width="511pt" xmlns="http://www.w3.org/2000/svg"><path d="m509.828125 205.488281c.074219-.09375.144531-.1875.214844-.28125.066406-.089843.128906-.183593.191406-.273437.0625-.085938.121094-.171875.175781-.257813.0625-.097656.121094-.195312.179688-.292969.050781-.085937.097656-.171874.148437-.261718.058594-.101563.113281-.199219.167969-.304688.046875-.09375.089844-.1875.136719-.285156.042969-.089844.082031-.183594.125-.277344.046875-.109375.097656-.21875.140625-.332031.035156-.085937.0625-.175781.09375-.261719.039062-.109375.078125-.21875.113281-.332031.035156-.105469.070313-.214844.101563-.324219.023437-.078125.042968-.160156.0625-.238281.035156-.132813.066406-.261719.09375-.394531.023437-.101563.042968-.203125.0625-.304688.015624-.074218.023437-.152344.039062-.226562.019531-.148438.039062-.292969.058594-.441406.007812-.09375.019531-.1875.027344-.28125.007812-.078126.011718-.15625.015624-.234376.011719-.148437.015626-.300781.019532-.453124 0-.085938.003906-.175782.003906-.265626-.003906-.089843-.007812-.179687-.011719-.269531-.003906-.140625-.011719-.277343-.023437-.417969-.007813-.085937-.011719-.175781-.023438-.265624-.011718-.113282-.027344-.222657-.042968-.332032-.015626-.113281-.03125-.230468-.050782-.347656-.015625-.089844-.03125-.179688-.050781-.273438-.027344-.132812-.0625-.261718-.09375-.394531-.015625-.0625-.023437-.125-.039063-.1875-.019531-.070312-.042968-.140625-.0625-.214843-.007812-.019532-.011718-.042969-.019531-.066407-31.042969-115.355469-136.101562-195.894531-255.582031-195.894531-45.066406 0-89.691406 11.613281-129.039062 33.582031-4.820313 2.695313-6.546876 8.785157-3.855469 13.609375 2.691406 4.820313 8.785156 6.546875 13.605469 3.855469 12.785156-7.136719 26.167968-13.089844 39.960937-17.808594-7.550781 6.78125-14.773437 14.53125-21.574219 23.230469-25.175781 32.195312-43.535156 74.847656-53.554687 124.113281-12.566407-7.929687-27.125-12.199219-42.347657-12.199219-10.691406 0-21.058593 2.097657-30.636718 6.089844 12.277344-30.925781 30.789062-59.175781 54.425781-82.808594 3.902344-3.90625 3.902344-10.238281 0-14.144531-3.90625-3.90625-10.238281-3.90625-14.144531 0-32.738282 32.742188-56.394532 73.671875-68.429688 118.382813-.003906.015625-.007812.027344-.011718.042968-.019532.078126-.042969.152344-.0625.230469-.015626.0625-.023438.125-.039063.1875-.035156.128907-.070313.261719-.09375.394531-.019531.089844-.035156.183594-.050781.273438-.019532.117188-.039063.230469-.0546878.34375-.0117187.113281-.03125.222656-.0429687.332031-.0078125.089844-.015625.179688-.0234375.269531-.0078125.136719-.015625.277344-.0234375.414063 0 .09375-.0078125.183594-.0078125.273437 0 .089844.00390625.175782.00390625.265626 0 .152343.00781255.300781.01562495.453124.0039063.078126.0078126.15625.015625.234376.0078126.09375.0195313.1875.03125.28125.015625.148437.0351558.292968.0585938.441406.011719.074218.023438.148437.039062.226562.015626.101563.039063.203125.0625.304688.027344.128906.058594.261718.089844.390625.023438.082031.042969.160156.066406.242187.03125.109375.066407.21875.101563.324219.035156.113281.070313.222656.109375.328125.035156.089844.0625.175781.097656.265625.042969.109375.09375.21875.140625.332031.042969.089844.082031.183594.125.277344.046875.09375.089844.1875.136719.28125.054688.105469.113281.207031.167969.308594.050781.085937.097656.171875.148437.257812.058594.097656.117188.199219.179688.296875.054687.085938.117187.171875.175781.257813.0625.089844.125.179687.191406.269531.070313.097656.140625.191406.214844.285156.054687.066407.113281.132813.167969.203125.085937.101563.175781.199219.265625.296875.078125.085938.15625.171875.238281.253907.027344.03125.050781.0625.082031.09375.023438.023437.050781.046874.078125.070312.109375.105469.222656.207031.335938.308594.046875.042968.089844.09375.140625.136718l245.882812 211.136719.121094.105469c.050781.042969.101563.074219.148437.113281.101563.085938.207032.171875.3125.253907.039063.027343.074219.058593.109376.085937.042968.03125.082031.0625.125.089844.058593.042969.113281.078125.171874.113281.101563.070312.203126.140625.308594.207031.066406.039063.132813.085938.199219.125.035156.023438.070313.042969.105469.066407.042968.023437.085937.046874.132812.070312.105469.058594.214844.113281.320313.171875.089843.042969.175781.09375.269531.136719.03125.015625.066406.035156.101562.050781.03125.015625.0625.027344.09375.039063.113282.054687.230469.097656.347657.144531.09375.039062.1875.082031.285156.117187.042969.015625.085937.03125.128906.046875.03125.011719.066407.023438.097657.035157.019531.007812.039062.011718.054687.015624.105469.035157.207031.0625.3125.097657.085937.023437.171875.054687.257813.078125.027343.007812.050781.015625.078124.023437.074219.019531.148438.035157.226563.050781.019531.007813.039063.015626.0625.019532.039063.007812.074219.011718.109375.019531.082031.015625.160156.035156.242188.050781.046874.007813.097656.023438.144531.03125.171875.03125.347656.050782.519531.074219.070312.007813.140625.019531.207031.027344.34375.035156.6875.058593 1.035157.058593h.011718.007813c.347656 0 .691406-.023437 1.035156-.058593.070313-.007813.140625-.019531.207031-.027344.175782-.023437.351563-.042969.523438-.074219.042968-.007812.085937-.019531.128906-.027344.085938-.015624.167969-.039062.253906-.054687.035156-.007813.074219-.011719.109375-.019531.023438-.003906.042969-.011719.066407-.019532.074218-.019531.152343-.035156.226562-.050781.023438-.007812.050781-.015625.078125-.023437.082031-.023438.164063-.050782.246094-.078125.105469-.03125.214843-.058594.316406-.097657.019531-.003906.039063-.007812.0625-.015624.03125-.011719.0625-.023438.097656-.035157.042969-.019531.085938-.03125.128907-.050781.09375-.03125.183593-.074219.273437-.109375.117187-.050781.238281-.09375.355469-.148437.03125-.011719.0625-.027344.09375-.042969.035156-.015625.070312-.035157.105468-.050781.085938-.042969.171876-.089844.261719-.132813.109375-.058594.21875-.113281.324219-.175781.042969-.023438.089844-.042969.132812-.066406.035157-.023438.070313-.046876.105469-.070313.066407-.039063.132813-.082031.195313-.125.105468-.0625.210937-.132813.3125-.203125.054687-.039062.113281-.070312.167968-.113281.042969-.03125.085938-.0625.128907-.09375.035156-.023438.070312-.054688.109375-.082031.105468-.082032.207031-.164063.308594-.25.050781-.039063.101562-.074219.152343-.117188l.121094-.105469 83.605469-71.792969c4.191406-3.597656 4.667968-9.910156 1.070312-14.101562-3.597656-4.1875-9.910156-4.667969-14.101562-1.070312l-23.6875 20.339843 101.710937-145.5625c11.1875-10.90625 25.914063-16.914062 41.566407-16.914062 12.230468 0 23.890624 3.671875 33.742187 10.472656l-77.453125 66.507813c-.003906.003906-.007812.003906-.011719.007812l-23.542969 20.21875c-4.191406 3.597656-4.671874 9.910156-1.074218 14.101562 1.980468 2.300782 4.777344 3.484376 7.59375 3.484376 2.304687 0 4.621094-.792969 6.511718-2.414063l23.519532-20.199219c.007812-.007812.015625-.011718.023437-.019531l86.40625-74.195313c.050781-.042968.09375-.089843.144531-.136718.113282-.101563.226563-.203125.335938-.308594.023438-.027344.054688-.046875.078125-.070312.027344-.03125.054687-.0625.082031-.09375.082032-.082032.160156-.167969.238282-.253907.089843-.097656.179687-.199219.265624-.300781.054688-.0625.109376-.128906.164063-.199219zm-253.828125-184.988281c.097656 0 10.253906 2.652344 21.332031 45.152344 7.5 28.777344 13.261719 68.261718 16.527344 112.785156-11.492187-6.234375-24.417969-9.554688-37.859375-9.554688s-26.367188 3.320313-37.859375 9.554688c3.269531-44.523438 9.027344-84.007812 16.527344-112.785156 11.078125-42.5 21.238281-45.152344 21.332031-45.152344zm-58.261719 183.941406 36.761719 157.835938-112.765625-161.386719c10.28125-7.785156 22.746094-12.003906 35.863281-12.003906 14.996094 0 29.140625 5.507812 40.140625 15.554687zm20.128907-1.746094c10.6875-8.933593 24.035156-13.808593 38.132812-13.808593 14.101562 0 27.445312 4.875 38.136719 13.808593l-38.136719 163.726563zm96.152343-22.828124c-3.3125-47.296876-9.25-88.246094-17.332031-119.257813-3.730469-14.308594-7.808594-26-12.261719-35.15625 47.097657 16.5625 86.902344 73.453125 104.644531 151.351563-10.671874-5.171876-22.457031-7.917969-34.667968-7.917969-14.433594 0-28.273438 3.824219-40.382813 10.980469zm-86.445312-154.414063c-4.453125 9.15625-8.53125 20.847656-12.257813 35.152344-8.085937 31.015625-14.019531 71.964843-17.335937 119.261719-12.105469-7.15625-25.949219-10.980469-40.382813-10.980469-12.210937 0-23.992187 2.742187-34.667968 7.917969 17.742187-77.898438 57.550781-134.789063 104.644531-151.351563zm-202.117188 173.90625c9.851563-6.800781 21.511719-10.472656 33.738281-10.472656 15.65625 0 30.382813 6.007812 41.570313 16.917969l101.710937 145.5625zm252.046875 162.917969 36.757813-157.835938c11-10.050781 25.144531-15.554687 40.140625-15.554687 13.117187 0 25.585937 4.21875 35.867187 12.003906zm132.949219-181.195313c-10.015625-49.265625-28.375-91.917969-53.550781-124.113281-6.796875-8.691406-14.015625-16.4375-21.558594-23.214844 66.738281 22.960938 121.492188 74.179688 148.089844 141.21875-9.578125-3.988281-19.941406-6.085937-30.628906-6.085937-15.222657 0-29.785157 4.265625-42.351563 12.195312zm0 0"/><path d="m97.679688 75.695312c2.148437 0 4.316406-.691406 6.144531-2.117187l.121093-.09375c4.351563-3.398437 5.128907-9.679687 1.726563-14.035156-3.394531-4.355469-9.679687-5.128907-14.035156-1.730469-.019531.015625-.097657.078125-.132813.105469-4.339844 3.402343-5.109375 9.675781-1.714844 14.023437 1.972657 2.527344 4.914063 3.847656 7.890626 3.847656zm0 0"/><path d="m363.738281 304.8125-.203125.175781c-4.1875 3.597657-4.667968 9.910157-1.070312 14.101563 1.976562 2.300781 4.773437 3.484375 7.589844 3.484375 2.308593 0 4.625-.792969 6.511718-2.414063l.203125-.175781c4.191407-3.597656 4.671875-9.910156 1.070313-14.101563-3.59375-4.1875-9.910156-4.667968-14.101563-1.070312zm0 0"/></svg>