<?xml version="1.0" encoding="utf-8"?>
<!-- Generator: Adobe Illustrator 28.2.0, SVG Export Plug-In . SVG Version: 6.00 Build 0)  -->
<svg version="1.1" id="Capa_1" xmlns="http://www.w3.org/2000/svg" xmlns:xlink="http://www.w3.org/1999/xlink" x="0px" y="0px"
	 viewBox="0 0 100 100" style="enable-background:new 0 0 100 100;" xml:space="preserve">
<style type="text/css">
	.st0{fill:url(#SVGID_1_);}
	.st1{fill:url(#SVGID_00000155859720737760727130000004204997134945220795_);}
	.st2{fill:url(#SVGID_00000117636424982265030550000003822622038752264338_);}
	.st3{fill:url(#SVGID_00000010272812779754776020000010538881616407369344_);}
</style>
<g>
	<linearGradient id="SVGID_1_" gradientUnits="userSpaceOnUse" x1="18.9937" y1="85.4053" x2="18.9937" y2="85.4053">
		<stop  offset="0" style="stop-color:#000000"/>
		<stop  offset="0.0689" style="stop-color:#1F1C10"/>
		<stop  offset="0.2116" style="stop-color:#58502F"/>
		<stop  offset="0.3338" style="stop-color:#837746"/>
		<stop  offset="0.4293" style="stop-color:#9C8E54"/>
		<stop  offset="0.4863" style="stop-color:#A69759"/>
		<stop  offset="0.5472" style="stop-color:#9C8E53"/>
		<stop  offset="0.6521" style="stop-color:#807445"/>
		<stop  offset="0.7881" style="stop-color:#534C2D"/>
		<stop  offset="0.9485" style="stop-color:#15130B"/>
		<stop  offset="1" style="stop-color:#000000"/>
	</linearGradient>
	<path class="st0" d="M18.99,85.41"/>
	
		<linearGradient id="SVGID_00000112598474492941961970000017040343098056889527_" gradientUnits="userSpaceOnUse" x1="2.4291" y1="81.911" x2="2.4291" y2="81.911">
		<stop  offset="0" style="stop-color:#000000"/>
		<stop  offset="0.0689" style="stop-color:#1F1C10"/>
		<stop  offset="0.2116" style="stop-color:#58502F"/>
		<stop  offset="0.3338" style="stop-color:#837746"/>
		<stop  offset="0.4293" style="stop-color:#9C8E54"/>
		<stop  offset="0.4863" style="stop-color:#A69759"/>
		<stop  offset="0.5472" style="stop-color:#9C8E53"/>
		<stop  offset="0.6521" style="stop-color:#807445"/>
		<stop  offset="0.7881" style="stop-color:#534C2D"/>
		<stop  offset="0.9485" style="stop-color:#15130B"/>
		<stop  offset="1" style="stop-color:#000000"/>
	</linearGradient>
	<path style="fill:url(#SVGID_00000112598474492941961970000017040343098056889527_);" d="M2.43,81.91"/>
	
		<linearGradient id="SVGID_00000108989842995044541000000007947575954459092625_" gradientUnits="userSpaceOnUse" x1="62.1475" y1="26.0437" x2="97.7249" y2="26.0437">
		<stop  offset="0" style="stop-color:#000000"/>
		<stop  offset="3.051692e-03" style="stop-color:#070604"/>
		<stop  offset="0.0211" style="stop-color:#2C2818"/>
		<stop  offset="0.0413" style="stop-color:#4D4629"/>
		<stop  offset="0.0634" style="stop-color:#696038"/>
		<stop  offset="0.0883" style="stop-color:#807444"/>
		<stop  offset="0.1171" style="stop-color:#91844E"/>
		<stop  offset="0.1523" style="stop-color:#9D8F54"/>
		<stop  offset="0.2006" style="stop-color:#A49558"/>
		<stop  offset="0.324" style="stop-color:#A69759"/>
		<stop  offset="0.5986" style="stop-color:#A49558"/>
		<stop  offset="0.6975" style="stop-color:#9D8F54"/>
		<stop  offset="0.768" style="stop-color:#92844E"/>
		<stop  offset="0.825" style="stop-color:#817545"/>
		<stop  offset="0.8739" style="stop-color:#6B6139"/>
		<stop  offset="0.9171" style="stop-color:#4F482B"/>
		<stop  offset="0.9563" style="stop-color:#2F2B19"/>
		<stop  offset="0.991" style="stop-color:#0B0A06"/>
		<stop  offset="1" style="stop-color:#000000"/>
	</linearGradient>
	<path style="fill:url(#SVGID_00000108989842995044541000000007947575954459092625_);" d="M98.21,10.15
		c-0.79,1.37-1.78,2.59-2.94,3.67c-0.61,0.57-1.18,1.2-1.79,1.77c-0.63,0.59-1.05,1.29-1.37,2.08c-1.22,3.04-2.74,5.88-5.07,8.24
		c-0.47,0.48-0.68,0.95-0.46,1.69c0.5,1.7,0.72,3.5,1.35,5.15c0.5,1.31,1.02,2.59,1.35,3.96c0.2,0.84,0.32,0.85,1.15,0.34
		c0.13-0.08,0.24-0.2,0.55-0.06c-0.48,0.61-1.06,1.09-1.58,1.61c-0.56,0.55-1.11,1.13-1.73,1.6c-0.91,0.69-1.64,0.57-2.49-0.28
		c-2.02-2.04-4.04-4.09-6.06-6.14c-0.44,0.09-0.36,0.45-0.41,0.74c-0.16,0.96-0.82,1.62-1.56,2.08c-0.94,0.58-1.24,1.35-1.22,2.36
		c0.01,0.47-0.08,0.95-0.04,1.41c0.11,1.15-0.48,1.87-1.37,2.45c-0.62,0.4-1.02,0.34-1.49-0.2c-0.33-0.38-0.37-0.87-0.48-1.31
		c-0.3-1.16-0.53-2.34-0.74-3.52c-0.08-0.43-0.2-0.6-0.66-0.66c-0.95-0.14-0.95-0.2-0.73-1.36c-0.22-0.34-0.57-0.15-0.85-0.19
		c-0.51-0.08-0.81-0.42-0.71-0.85c0.14-0.6-0.14-0.68-0.6-0.82c-1.45-0.45-2.88-0.95-4.31-1.45c-1.05-0.37-1.23-1.06-0.53-1.86
		c0.62-0.7,1.31-1.12,2.32-1.05c1.46,0.09,2.95-0.06,4.4,0.07c1.58,0.14,2.86-0.35,3.91-1.35c-2.49-3.03-5-6.07-7.54-9.16
		c1.33-1.81,2.77-3.27,4.55-4.83c-0.22,0.9-0.95,1.06-1,1.75c0.63,0.57,1.54,0.55,2.26,0.95c2.24,1.23,4.64,2.04,7.05,2.86
		c0.89,0.3,1.5,0.21,2.24-0.44c1.92-1.67,4.2-2.78,6.63-3.48c1.99-0.58,3.58-1.62,4.96-3.13c1.16-1.27,2.42-2.48,3.99-3.27
		C97.6,9.29,97.99,9,98.48,9C98.77,9.49,98.4,9.83,98.21,10.15z"/>
	
		<linearGradient id="SVGID_00000078731261563430639360000012466517296143036856_" gradientUnits="userSpaceOnUse" x1="2.0705" y1="60.6776" x2="72.3131" y2="60.6776">
		<stop  offset="0" style="stop-color:#000000"/>
		<stop  offset="0.0262" style="stop-color:#1B190F"/>
		<stop  offset="0.068" style="stop-color:#403A22"/>
		<stop  offset="0.1134" style="stop-color:#605733"/>
		<stop  offset="0.1625" style="stop-color:#796F41"/>
		<stop  offset="0.2165" style="stop-color:#8D814C"/>
		<stop  offset="0.2782" style="stop-color:#9B8D53"/>
		<stop  offset="0.3541" style="stop-color:#A49558"/>
		<stop  offset="0.4863" style="stop-color:#A69759"/>
		<stop  offset="0.695" style="stop-color:#A49558"/>
		<stop  offset="0.7701" style="stop-color:#9D8F54"/>
		<stop  offset="0.8237" style="stop-color:#92844E"/>
		<stop  offset="0.867" style="stop-color:#817545"/>
		<stop  offset="0.9042" style="stop-color:#6B6139"/>
		<stop  offset="0.937" style="stop-color:#4F482B"/>
		<stop  offset="0.9668" style="stop-color:#2F2B19"/>
		<stop  offset="0.9932" style="stop-color:#0B0A06"/>
		<stop  offset="1" style="stop-color:#000000"/>
	</linearGradient>
	<path style="fill:url(#SVGID_00000078731261563430639360000012466517296143036856_);" d="M71.82,44.82
		c-1.92,1.7-3.83,3.41-5.71,5.15c-3.39,3.12-6.84,6.18-10.37,9.14c-2.36,1.98-4.68,4.01-7.04,6.01c-0.79,0.67-1.61,1.3-2.42,1.95
		c-5.21,4.16-14.73,11.19-20.32,14.66c-0.1,0.07-0.21,0.14-0.31,0.2c-1.85,1.22-3.67,2.26-5.69,3.11c-0.46,0.17-0.52,0.21-0.88,0.36
		l-0.47,0.2c-2.21,0.97-4.48,1.76-6.88,2.11c-2.72,0.4-4.96-0.16-7.19-2.09C4.4,85.5,4.31,85.4,4.21,85.31
		c-0.09-0.09-0.13-0.13-0.26-0.26c-0.58-0.84-1-2.03-1.32-3.13c-0.09-0.31-0.17-0.61-0.24-0.9c-0.72-3.23-0.29-7-0.07-10.23
		c0.01-0.09,0.01-0.15,0.02-0.2c0-0.01,0-0.02,0.01-0.03c1.99-10.17,6.01-23.42,9.72-33.06c0.33,0.5,0.06,0.81-0.05,1.14
		C9.78,45.27,7.7,51.96,6.18,58.8c-0.48,2.14-0.83,4.3-1.14,6.47c-0.02,0.1-0.32,3.98-0.35,4.11c0,0,0,0,0,0c0,0.6,0.01,1.05,0,1.49
		c-0.04,1.69,0.12,3.34,0.67,4.95c0.99,2.85,3.27,3.55,5.59,3.09c1.44-0.29,2.82-0.77,4.14-1.44c2.68-1.35,5.13-3.05,7.53-4.83
		c1.46-1.08,1.87-1.37,4.35-3.36c0.32-0.3,0.51-0.4,0.8-0.7c0.77-0.81,9.96-9.09,10.69-9.88c1.13-1.14,2.24-2.24,3.33-3.36
		c2.8-2.9,5.62-5.79,8.39-8.72c2.26-2.4,4.46-4.84,6.68-7.29c1.58-1.75,3.14-3.51,4.67-5.3c0.5-0.58,0.93-0.62,1.62-0.32
		c1.34,0.59,2.74,1.02,4.1,1.57c1.83,0.74,3.16,2,3.72,3.94c0.42,1.45,0.78,2.93,1.21,4.37C72.33,44.13,72.22,44.46,71.82,44.82z"/>
</g>
</svg>
